<svg width="430" height="280" viewBox="0 0 430 280" fill="none" xmlns="http://www.w3.org/2000/svg">
  <rect width="430" height="280" rx="38" fill="#FFF1F6"/>
  <ellipse cx="146" cy="162" rx="82" ry="72" fill="#F8AFC7"/>
  <ellipse cx="284" cy="162" rx="82" ry="72" fill="#F7A1C0"/>
  <path d="M95 120L75 84L124 101" fill="#F8AFC7"/>
  <path d="M198 120L218 84L169 101" fill="#F8AFC7"/>
  <path d="M232 120L212 84L261 101" fill="#F7A1C0"/>
  <path d="M335 120L355 84L306 101" fill="#F7A1C0"/>
  <ellipse cx="125" cy="164" rx="10" ry="14" fill="#2A1721"/>
  <ellipse cx="166" cy="164" rx="10" ry="14" fill="#2A1721"/>
  <ellipse cx="264" cy="164" rx="10" ry="14" fill="#2A1721"/>
  <ellipse cx="304" cy="164" rx="10" ry="14" fill="#2A1721"/>
  <path d="M145 176L137 188H153L145 176Z" fill="#D93B70"/>
  <path d="M284 176L276 188H292L284 176Z" fill="#D93B70"/>
  <path d="M177 192C197 208 233 208 253 192" stroke="#E25584" stroke-width="9" stroke-linecap="round"/>
  <path d="M204 130C215 114 234 114 246 130" stroke="#FF3B7F" stroke-width="7" stroke-linecap="round"/>
  <path d="M201 128C201 113 214 101 230 101C246 101 259 113 259 128" stroke="#FF3B7F" stroke-width="7"/>
</svg>
